<svg width="48" height="32" viewBox="0 0 48 32" fill="none" xmlns="http://www.w3.org/2000/svg">
<path d="M30.3022 5.58655H17.7021V26.4112H30.3022V5.58655Z" fill="#FF5F00"/>
<path d="M18.9997 15.9997C18.9981 13.9945 19.4473 12.0152 20.3133 10.2116C21.1793 8.40796 22.4394 6.82731 23.9983 5.58925C22.0676 4.05387 19.749 3.09911 17.3074 2.83409C14.8659 2.56907 12.3999 3.00448 10.1913 4.09055C7.98272 5.17662 6.12065 6.86954 4.81792 8.97583C3.51519 11.0821 2.82434 13.5168 2.82434 16.0016C2.82434 18.4864 3.51519 20.921 4.81792 23.0273C6.12065 25.1336 7.98272 26.8265 10.1913 27.9126C12.3999 28.9987 14.8659 29.4341 17.3074 29.169C19.749 28.904 22.0676 27.9493 23.9983 26.4139C22.4389 25.1754 21.1786 23.5942 20.3125 21.7899C19.4465 19.9856 18.9976 18.0056 18.9997 15.9997Z" fill="#EB001B"/>
<path d="M43.9238 24.2061V23.7788H44.1058V23.6904H43.6726V23.7788H43.8437V24.2061H43.9238ZM44.7648 24.2061V23.6904H44.6337L44.4808 24.0588L44.3279 23.6904H44.1968V24.2061H44.2915V23.8156L44.4335 24.1509H44.5318L44.6738 23.8156V24.2061H44.7648Z" fill="#F79E1B"/>
<path d="M45.1739 16.0013C45.1738 18.4863 44.4828 20.9211 43.1799 23.0274C41.8769 25.1338 40.0146 26.8267 37.8057 27.9126C35.5968 28.9985 33.1306 29.4336 30.6889 29.1682C28.2472 28.9028 25.9286 27.9476 23.998 26.4118C25.5563 25.1726 26.816 23.5915 27.6822 21.7878C28.5485 19.9841 28.9986 18.0049 28.9986 15.9994C28.9986 13.994 28.5485 12.0148 27.6822 10.2111C26.816 8.40736 25.5563 6.82628 23.998 5.58712C25.9286 4.05126 28.2472 3.09604 30.6889 2.83064C33.1306 2.56523 35.5968 3.00036 37.8057 4.08628C40.0146 5.1722 41.8769 6.86509 43.1799 8.97144C44.4828 11.0778 45.1738 13.5126 45.1739 15.9976V16.0013Z" fill="#F79E1B"/>
</svg>