<?xml version="1.0" encoding="UTF-8"?>
<svg id="Layer_1" data-name="Layer 1" xmlns="http://www.w3.org/2000/svg" viewBox="0 0 874 252">
  <defs>
    <style>
      .cls-1 {
        fill: #35322c;
      }

      .cls-1, .cls-2, .cls-3, .cls-4 {
        fill-rule: evenodd;
      }

      .cls-2 {
        fill: #00a0e9;
      }

      .cls-3 {
        fill: #373530;
      }

      .cls-4 {
        fill: #332d28;
      }
    </style>
  </defs>
  <path class="cls-3" d="m83.59,99.62l28.61,60.23h-58.39l29.79-60.23Zm43.9,94.11h34.98L97.11,54.28h-9.57c-1.5,0-3.04.42-4.43,1.25-1.37.85-2.39,2.03-3.06,3.39L14.21,193.72h23.33l11.8-22.77h67.2l10.95,22.77Z"/>
  <path class="cls-3" d="m207.45,193.72h-31.65V60.28c0-1.52.6-3.07,1.8-4.24,1.19-1.16,2.77-1.76,4.32-1.76h25.53v139.45"/>
  <path class="cls-1" d="m235.28,96.86c0-1.52.59-3.05,1.78-4.21,1.2-1.18,2.78-1.75,4.32-1.75h25.75v102.83h-31.85v-96.86"/>
  <path class="cls-4" d="m325.81,165.08c0,2.5.48,4.84,1.42,7.03.96,2.22,2.3,4.13,4.03,5.75,1.73,1.64,3.83,2.92,6.28,3.85,2.45.92,5.14,1.4,8.09,1.4,2.73,0,5.31-.92,7.74-2.71,2.42-1.78,4.51-4.23,6.31-7.41,1.8-3.16,3.23-6.93,4.31-11.36,1.06-4.41,1.6-9.21,1.6-14.38,0-6.64-.45-12.48-1.4-17.48-.94-5.01-2.27-9.21-3.97-12.61-1.7-3.41-3.73-5.9-6.07-7.62-2.37-1.69-4.95-2.54-7.74-2.54-2.03,0-3.98.33-5.89.99-1.89.67-3.69,1.57-5.42,2.73-1.75,1.16-3.38,2.5-4.97,4.08-1.57,1.58-3.01,3.23-4.31,4.95v45.33Zm-32.04-68.16c0-1.52.6-3.07,1.82-4.26,1.2-1.15,2.78-1.76,4.35-1.76h25.88v8.05c3.67-2.94,7.88-5.35,12.6-7.28,4.73-1.94,10.27-2.87,16.62-2.87,6.71,0,12.83,1.26,18.32,3.86,5.47,2.6,10.2,6.1,14.1,10.51,3.91,4.4,6.94,9.53,9.06,15.39,2.14,5.84,3.18,12.04,3.18,18.62,0,8.45-1.25,16.22-3.76,23.35-2.52,7.12-6.12,13.29-10.83,18.49-4.71,5.23-10.38,9.3-17.06,12.25-6.66,2.92-14.14,4.39-22.42,4.39-4.2,0-7.83-.17-10.88-.47-3.07-.34-6.04-1.07-8.93-2.22v41.22h-32.04V96.92Z"/>
  <path class="cls-4" d="m436.79,159.68c0-11.93,9.93-21.06,22.11-21.94,7.72-.56,12.36.8,15.09,2.49v35.24c-3.93,3.63-9.26,5.86-15.09,5.86-12.21,0-22.11-9.68-22.11-21.65m45.54-67.61c-15.29-4.28-34.63-5.08-61.06,1.67.86,2.58,2.03,7.17,2.84,9.84,41.81-7.29,49.88-1.63,49.88,16.06v5.52c-7.63-.53-16.63-1.8-24-1.91-28.6-.44-38.98,21.84-38.98,35.92,0,24.61,23.92,47.45,62.98,30.59v3.93h32.67v-75.06c0-14.58-12.84-23.37-24.32-26.56"/>
  <path class="cls-4" d="m515.23,88.98h33.82l33.32,63.46,27.42-59.36c.53-1.18,1.42-2.22,2.62-3.01,1.2-.74,2.53-1.08,3.86-1.08h18.05l-53.04,114.42c-12.76,31.15-43.73,26.75-49.4,26.75v-17.29c4.26,0,18.49.16,24.73-6.7,1.38-1.52,2.84-4.39,3.77-6.36.95-1.95,1.78-3.66,2.51-5.21l3.72-8.24-51.35-97.38"/>
  <path class="cls-2" d="m268.3,60.44c0,8.39-7.69,15.21-17.2,15.21s-17.18-6.82-17.18-15.21,7.69-15.19,17.18-15.19,17.2,6.81,17.2,15.19"/>
  <path class="cls-2" d="m859.83,194.82h-23.43c-.76,0-1.46-.41-1.85-1.06l-27.24-46.92-14,16.29v31.69h-19.02c-1.18,0-2.14-.96-2.14-2.14v-101.17c0-1.18.96-2.14,2.14-2.14h19.02v42.95c0,.59.48,1.07,1.07,1.07.32,0,.62-.14.82-.38l35.68-42.87c.41-.49,1.01-.77,1.64-.77h24.72l-35.92,41.91,38.51,63.53Zm-113.16,0h-19.3c-1.18,0-2.14-.96-2.14-2.14v-39.86c0-1.18-.96-2.14-2.14-2.14h-35.04v44.13h-19.3c-1.18,0-2.14-.96-2.14-2.14v-101.17c0-1.18.96-2.14,2.14-2.14h19.3v43.09h35.04c1.18,0,2.14-.96,2.14-2.14v-38.82c0-1.18.96-2.14,2.14-2.14h19.3v105.44Z"/>
</svg>