<svg width="44" height="15" viewBox="0 0 44 15" fill="none" xmlns="http://www.w3.org/2000/svg">
<path d="M16.8472 0.588095L11.2405 14.1237H7.58265L4.8229 3.3205C4.65637 2.65445 4.50966 2.41171 4.00014 2.13084C3.16945 1.67544 1.79552 1.24612 0.588135 0.981303L0.669421 0.580068H6.55765C6.94246 0.579195 7.31489 0.717665 7.6076 0.970442C7.90031 1.22322 8.09399 1.57362 8.15363 1.95831L9.61082 9.79242L13.2112 0.580068L16.8472 0.588095ZM31.1792 9.70414C31.1951 6.13115 26.2981 5.93455 26.3318 4.33763C26.3417 3.85214 26.7997 3.33455 27.7989 3.20415C28.9691 3.08976 30.148 3.29772 31.2109 3.806L31.8176 0.935165C30.7829 0.541958 29.6873 0.338165 28.582 0.333313C25.1621 0.333313 22.7533 2.17297 22.7335 4.80908C22.7116 6.75708 24.4523 7.84442 25.7628 8.49241C27.111 9.15646 27.565 9.57976 27.559 10.1736C27.5491 11.0824 26.4825 11.4836 25.4872 11.4977C23.7485 11.5258 22.7374 11.0242 21.9325 10.643L21.306 13.6102C22.1149 13.9853 23.6078 14.3123 25.1542 14.3284C28.7902 14.3284 31.1673 12.5108 31.1792 9.69813V9.70414ZM40.2098 14.1117H43.4117L40.6182 0.576058H37.6642C37.3485 0.572793 37.0392 0.665769 36.7764 0.842889C36.5137 1.02001 36.3098 1.27306 36.1911 1.56911L30.9988 14.1117H34.6328L35.3545 12.0895H39.7935L40.2098 14.1117ZM36.3498 9.31495L38.1717 4.25538L39.2126 9.32698L36.3498 9.31495ZM21.7917 0.576058L18.9289 14.1117H15.4693L18.3321 0.576058H21.7917Z" fill="#1A1F71"/>
</svg>