<?xml version="1.0" encoding="UTF-8" standalone="no"?>
<!-- Generator: Adobe Illustrator 15.0.0, SVG Export Plug-In . SVG Version: 6.00 Build 0)  -->
<svg xmlns:dc="http://purl.org/dc/elements/1.1/" xmlns:cc="http://creativecommons.org/ns#" xmlns:rdf="http://www.w3.org/1999/02/22-rdf-syntax-ns#" xmlns:svg="http://www.w3.org/2000/svg" xmlns="http://www.w3.org/2000/svg" xmlns:sodipodi="http://sodipodi.sourceforge.net/DTD/sodipodi-0.dtd" xmlns:inkscape="http://www.inkscape.org/namespaces/inkscape" version="1.1" id="Layer_1" x="0px" y="0px" width="874.20099" height="252.34399" viewBox="0 0 874.20099 252.34399" enable-background="new 0 0 1000 500" xml:space="preserve" inkscape:version="0.91 r13725" sodipodi:docname="WeChatPay.svg"><metadata id="metadata3554"><rdf:RDF><cc:Work rdf:about=""><dc:format>image/svg+xml</dc:format><dc:type rdf:resource="http://purl.org/dc/dcmitype/StillImage"/><dc:title/></cc:Work></rdf:RDF></metadata><defs id="defs3552"/><sodipodi:namedview pagecolor="#ffffff" bordercolor="#666666" borderopacity="1" objecttolerance="10" gridtolerance="10" guidetolerance="10" inkscape:pageopacity="0" inkscape:pageshadow="2" inkscape:window-width="1920" inkscape:window-height="1017" id="namedview3550" showgrid="false" fit-margin-top="0" fit-margin-left="0" fit-margin-right="0" fit-margin-bottom="0" inkscape:zoom="1" inkscape:cx="425.89905" inkscape:cy="115.38115" inkscape:window-x="-8" inkscape:window-y="-8" inkscape:window-maximized="1" inkscape:current-layer="Layer_1"/>
<g id="g3496" transform="translate(-64.255,-123.826)">
	<path d="m 168.271,283.449 c -1.291,0.652 -2.744,1.029 -4.289,1.029 -3.576,0 -6.684,-1.967 -8.316,-4.879 l -0.625,-1.367 -26.035,-57.131 c -0.281,-0.621 -0.455,-1.324 -0.455,-2.008 0,-2.633 2.135,-4.766 4.768,-4.766 1.068,0 2.057,0.354 2.852,0.945 l 30.723,21.875 c 2.244,1.467 4.926,2.328 7.809,2.328 1.721,0 3.361,-0.32 4.891,-0.877 L 324.073,174.295 C 298.175,143.774 255.524,123.826 207.259,123.826 128.277,123.826 64.255,177.18 64.255,243 c 0,35.906 19.262,68.23 49.412,90.078 2.418,1.727 4.002,4.564 4.002,7.766 0,1.059 -0.227,2.025 -0.504,3.035 -2.408,8.982 -6.262,23.367 -6.441,24.041 -0.301,1.127 -0.77,2.305 -0.77,3.484 0,2.633 2.133,4.766 4.77,4.766 1.033,0 1.879,-0.385 2.752,-0.887 l 31.307,-18.076 c 2.355,-1.357 4.848,-2.201 7.596,-2.201 1.461,0 2.873,0.227 4.201,0.633 14.605,4.201 30.363,6.535 46.68,6.535 78.977,0 143.008,-53.357 143.008,-119.174 0,-19.936 -5.908,-38.711 -16.291,-55.227 l -164.658,95.072 -1.048,0.604 z" id="path3498" inkscape:connector-curvature="0" style="fill:#1aad19"/>
	<path d="m 469.703,328.424 -1.098,3.895 c -0.916,3.248 -1.727,6.117 -2.426,8.951 -0.893,-4.18 -2.127,-8.852 -3.238,-12.973 l -7.357,-27.748 -0.129,-0.492 -4.824,0 -8.23,28.422 c -1.473,4.807 -2.779,9.146 -3.695,12.943 -0.705,-3.002 -1.555,-6.35 -2.443,-9.863 l -7.982,-31.01 -0.133,-0.492 -5.566,0 13.373,50.637 0.129,0.496 4.746,0 8.6,-29.01 c 1.5,-4.945 2.631,-8.832 3.447,-12.23 0.732,3.586 1.75,7.527 3.023,12.195 l 7.434,28.553 0.129,0.492 4.816,0 15.068,-50.279 0.26,-0.854 -5.596,0 -8.308,28.367 z" id="path3500" inkscape:connector-curvature="0" style="fill:#514f4f"/>
	<path d="m 501.143,313.418 c -10.006,0 -16.73,8.014 -16.73,19.945 0,11.098 6.959,18.557 17.316,18.557 6.51,0 10.207,-1.67 11.496,-2.383 l 0.791,-0.443 -2.344,-4.061 -0.555,0.254 c -1.83,0.848 -4.324,1.715 -8.949,1.715 -7.584,0 -12.08,-4.988 -12.389,-13.699 l 25.646,0 0.168,-0.756 c 0.164,-0.762 0.164,-1.316 0.164,-2.324 0,-1.367 -0.189,-6.148 -2.662,-10.301 -2.564,-4.317 -6.585,-6.504 -11.952,-6.504 m -11.073,15.186 c 1.355,-7.617 6.355,-10.344 10.633,-10.344 2.721,0 4.9,0.818 6.492,2.438 2.35,2.385 2.881,5.842 2.975,7.906 l -20.1,0 z" id="path3502" inkscape:connector-curvature="0" style="fill:#514f4f"/>
	<path d="m 557.059,344.965 -0.004,0 c -2.766,1.273 -6.645,2.037 -10.377,2.037 -12.426,0 -19.846,-7.854 -19.846,-21.012 0,-13.662 7.637,-21.818 20.432,-21.818 3.537,0 6.9,0.666 9.475,1.877 l 0.553,0.26 2.498,-4.336 -0.746,-0.41 c -0.988,-0.543 -4.758,-2.311 -11.855,-2.311 -15.51,0 -25.93,10.715 -25.93,26.662 0,19.193 13.064,26.008 24.252,26.008 6.303,0 11.217,-1.338 13.719,-2.586 l 0.814,-0.41 -2.434,-4.215 -0.551,0.254 z" id="path3504" inkscape:connector-curvature="0" style="fill:#514f4f"/>
	<path d="m 582.326,313.418 c -2.736,0 -5.359,0.752 -7.562,2.17 -1.268,0.727 -2.447,1.73 -3.453,2.93 l 0,-19.264 -5.426,0 0,51.936 5.426,0 0,-22.352 c 0,-1.342 0.061,-2.205 0.385,-3.188 1.52,-4.264 5.504,-7.244 9.682,-7.244 7.549,0 8.676,6.945 8.676,11.088 l 0,21.695 5.428,0 0,-22.059 c -0.002,-14.956 -10.961,-15.712 -13.156,-15.712" id="path3506" inkscape:connector-curvature="0" style="fill:#514f4f"/>
	<path d="m 643.93,306.348 -5.432,0 0,8.213 -5.914,0 0,4.432 5.914,0 0,21.162 c 0,4.215 0.789,7.162 2.395,8.986 1.455,1.863 3.789,2.852 6.744,2.852 2.053,0 3.83,-0.32 5.279,-0.955 l 0.875,-0.383 -2.281,-3.947 -0.471,0.104 c -0.822,0.174 -1.818,0.266 -2.959,0.266 -2.91,0 -4.15,-1.875 -4.15,-6.266 l 0,-21.818 10.002,0 0,-4.432 -10.002,0 0,-8.214 z" id="path3508" inkscape:connector-curvature="0" style="fill:#514f4f"/>
	<path d="m 689.398,299.693 c -3.6,0 -7.221,0.326 -10.756,0.961 l -0.793,0.143 0,50.395 5.428,0 0,-20.777 c 1.463,0.271 3.084,0.332 5.029,0.332 6.508,0 11.893,-2.061 15.166,-5.789 2.473,-2.715 3.68,-6.152 3.68,-10.506 0,-4.252 -1.414,-7.82 -4.09,-10.324 -2.968,-2.899 -7.693,-4.435 -13.664,-4.435 m -6.121,5.264 c 1.064,-0.178 3.059,-0.42 5.975,-0.42 7.926,0 12.473,3.746 12.473,10.281 0,7.045 -4.787,11.084 -13.129,11.084 -1.617,0 -3.658,-0.057 -5.318,-0.484 l 0,-20.461 z" id="path3510" inkscape:connector-curvature="0" style="fill:#514f4f"/>
	<path d="m 766.924,314.221 -8.771,23.32 c -0.703,1.832 -1.324,3.656 -1.848,5.207 -0.553,-1.697 -1.168,-3.439 -1.764,-4.998 l -9.201,-22.924 -0.238,-0.605 -5.799,0 13.525,33.807 c 0.363,0.92 0.371,1.168 0.371,1.178 0,0.232 -0.189,0.725 -0.363,1.16 -1.746,4.139 -4.027,6.916 -5.625,8.514 -2.199,2.117 -4.576,3.205 -5.799,3.662 l -0.986,0.361 2.57,4.439 0.521,-0.199 c 0.924,-0.352 3.365,-1.41 6.088,-3.705 4.668,-4.072 7.619,-10.26 12.092,-21.756 l 10.676,-26.551 0.375,-0.91 -5.824,0 z" id="path3512" inkscape:connector-curvature="0" style="fill:#514f4f"/>
	<path d="m 628.326,341.904 0,-13.723 c 0,-9.66 -4.523,-14.764 -13.082,-14.764 -3.779,0 -7.83,1.178 -10.816,3.145 l -0.561,0.338 2.355,4.076 0.592,-0.396 c 2.195,-1.494 5.061,-2.322 8.066,-2.322 l 0.123,0 c 2.414,0 4.291,0.648 5.578,1.928 1.557,1.541 2.312,3.961 2.316,7.389 -8.383,0.029 -14.436,1.824 -17.992,5.352 -2.258,2.232 -3.398,5.082 -3.398,8.467 0,5.104 3.523,10.6 11.256,10.6 5.393,0 8.844,-2.607 10.652,-4.518 l 0.375,3.715 5.211,0 -0.18,-1.113 c -0.434,-2.703 -0.495,-5.525 -0.495,-8.174 m -19.281,-6.049 c 2.363,-2.291 6.799,-3.451 13.184,-3.451 l 0.66,0.004 0.01,6.576 c 0,0.461 -0.053,1.145 -0.312,1.805 -1.051,3.078 -4.084,6.361 -9.457,6.361 -2.791,0 -6.049,-1.664 -6.049,-6.338 -10e-4,-2.021 0.659,-3.687 1.964,-4.957" id="path3514" inkscape:connector-curvature="0" style="fill:#514f4f"/>
	<path d="m 735.27,341.904 0,-13.723 c 0,-9.66 -4.523,-14.764 -13.08,-14.764 -3.564,0 -7.453,1.082 -10.396,2.891 l -0.547,0.344 2.332,4.031 0.582,-0.363 c 2.139,-1.328 4.859,-2.062 7.664,-2.062 l 0.129,0 c 2.406,0 4.283,0.648 5.574,1.926 1.555,1.543 2.311,3.963 2.314,7.393 -8.377,0.027 -14.43,1.826 -17.992,5.348 -2.254,2.234 -3.396,5.082 -3.396,8.471 0,5.102 3.523,10.598 11.252,10.598 5.396,0 8.85,-2.605 10.656,-4.518 l 0.371,3.715 5.217,0 -0.178,-1.113 c -0.444,-2.713 -0.502,-5.529 -0.502,-8.174 m -5.428,-2.92 c 0,0.465 -0.055,1.152 -0.312,1.807 -1.051,3.072 -4.086,6.359 -9.457,6.359 -2.791,0 -6.049,-1.662 -6.049,-6.338 0,-2.021 0.66,-3.688 1.967,-4.957 2.361,-2.291 6.799,-3.451 13.18,-3.451 l 0.668,0.004 0.003,6.576 z" id="path3516" inkscape:connector-curvature="0" style="fill:#514f4f"/>
	<rect x="597.83197" y="190.48801" width="72.123001" height="6.4710002" id="rect3518" style="fill:#514f4f"/>
	<rect x="597.83197" y="210.689" width="72.123001" height="6.973" id="rect3520" style="fill:#514f4f"/>
	<path d="m 599.66,270.443 68.471,0 0,-39.041 -68.471,0 0,39.041 z m 6.971,-32.576 54.525,0 0,26.1 -54.525,0 0,-26.1 z" id="path3522" inkscape:connector-curvature="0" style="fill:#514f4f"/>
	<path d="m 578.033,274.496 0,-89.818 c 4.09,-8.812 7.709,-18.309 10.664,-27.928 l -6.449,-3.73 c -6.367,22.439 -15.701,42.832 -27.41,59.896 l 3.846,6.611 c 4.059,-6.002 8.344,-13.061 12.377,-20.459 l 0,75.428 6.972,0 z" id="path3524" inkscape:connector-curvature="0" style="fill:#514f4f"/>
	<path d="m 843.022,274.496 0,-89.818 c 4.09,-8.812 7.709,-18.309 10.664,-27.928 l -6.449,-3.73 c -6.367,22.439 -15.697,42.832 -27.41,59.896 l 3.846,6.611 c 4.059,-6.002 8.344,-13.061 12.377,-20.459 l 0,75.428 6.972,0 z" id="path3526" inkscape:connector-curvature="0" style="fill:#514f4f"/>
	<path d="m 677.533,169.777 -42.371,0 4.488,-2.582 0.162,-0.096 -0.076,-0.164 c -0.514,-1.203 -1.865,-4.033 -3.299,-7.031 -1.33,-2.793 -2.701,-5.678 -3.361,-7.158 l -0.086,-0.207 -6.43,3.709 0.096,0.174 c 2.301,4.332 4.273,8.295 6.047,12.137 0.248,0.518 0.406,0.93 0.461,1.219 l -42.406,0 0,6.977 86.775,0 0,-6.978 z" id="path3528" inkscape:connector-curvature="0" style="fill:#514f4f"/>
	<polygon points="471.891,187.217 471.891,154.887 465.422,154.887 465.422,187.217 452.697,187.217 452.697,164.482 446.23,164.482 446.23,193.686 490.576,193.686 490.576,164.482 484.109,164.482 484.109,187.217 " id="polygon3530" style="fill:#514f4f"/>
	<rect x="448.25" y="206.40401" width="39.297001" height="6.4710002" id="rect3532" style="fill:#514f4f"/>
	<path d="m 456.738,237.926 0,-5.857 19.795,0 0,14.434 c -0.244,5.037 -0.494,6.57 -2.225,8.977 l -0.08,0.109 3.975,6.881 0.188,-0.15 c 3.48,-2.789 9.422,-7.883 17.656,-15.133 l 0.125,-0.104 -3.121,-5.408 -0.125,-0.213 -9.922,8.51 0,-24.372 -33.238,0 0,9.818 c 0.941,13.438 -2.416,23.055 -9.973,28.568 l -0.145,0.105 3.598,6.242 0.121,0.209 0.186,-0.154 c 9.416,-7.751 13.855,-18.679 13.185,-32.462" id="path3534" inkscape:connector-curvature="0" style="fill:#514f4f"/>
	<path d="m 414.277,185.451 3.902,6.76 c 10.039,-10.047 18.611,-22.117 24.971,-35.164 l -6.031,-3.49 c -6.234,12.72 -14.06,23.654 -22.842,31.894" id="path3536" inkscape:connector-curvature="0" style="fill:#514f4f"/>
	<path d="m 412.51,226.086 3.584,6.209 0.143,0.254 0.186,-0.221 c 3.822,-4.459 7.561,-9.164 11.117,-13.988 l 0,56.154 6.469,0 0,-66.818 c 2.926,-5.207 5.758,-11.021 8.41,-17.289 l 0.066,-0.16 -6.254,-3.607 -0.088,0.221 c -5.98,14.953 -13.904,28.121 -23.537,39.135 l -0.096,0.11 z" id="path3538" inkscape:connector-curvature="0" style="fill:#514f4f"/>
	<path d="m 514.1,233.859 c -4.258,-10.988 -7.42,-25.928 -9.404,-44.412 0.646,-1.936 1.467,-3.912 2.445,-5.873 l 17.334,0 c -1.336,21.084 -4.83,38 -10.375,50.285 m 23.923,-50.285 0,-6.471 -28.711,0 0.004,0 c 2.486,-7.51 5.344,-16.248 6.305,-23.732 l -6.752,-0.01 c -4.199,19.684 -10.607,36.766 -18.863,50.24 l 4.086,7.074 2.998,-5.992 c 1.127,-1.973 2.039,-3.639 2.727,-4.967 2.023,17.438 5.555,31.469 10.502,41.723 -4.75,8.215 -12.057,16.746 -21.723,25.363 l -0.123,0.107 3.725,6.457 0.135,0.219 0.182,-0.174 c 10.238,-9.59 17.324,-17.988 21.072,-24.967 4.268,7.605 11.494,16.814 19.891,25.336 l 0.184,0.188 3.832,-6.623 0.078,-0.143 -0.115,-0.111 c -9.002,-8.596 -16.141,-17.52 -20.109,-25.131 7.332,-13.398 11.908,-33.041 13.598,-58.387 l 7.077,0 z" id="path3540" inkscape:connector-curvature="0" style="fill:#514f4f"/>
	<path d="m 900.13,265.547 c -1.426,0 -2.756,-0.008 -4.037,-0.016 l 0,6.971 c 2.766,0 4.775,-0.025 6.092,-0.025 6.836,0 10.578,-1.463 13.5,-4.385 2.836,-2.842 4.195,-7.188 4.029,-12.902 l 0,-64.793 18.742,0 0,-6.953 -18.742,0 0,-29.885 -6.992,0 0,29.885 -57.539,0 0,6.953 57.539,0 0,64.811 c 0,7.04 -4.369,10.339 -12.592,10.339" id="path3542" inkscape:connector-curvature="0" style="fill:#514f4f"/>
	<path d="m 884.526,242.479 6.926,-4.041 c -3.701,-7.549 -8.67,-17.562 -14.812,-29.863 l -6.312,3.688 c 4.247,8.301 9.001,18.423 14.198,30.216" id="path3544" inkscape:connector-curvature="0" style="fill:#514f4f"/>
	<path d="m 770.311,227.471 c -4.475,5.107 -10.102,10.895 -18.197,16.682 -19.734,-14.938 -28.215,-31.297 -31.102,-38.16 l 62.688,0 c -1.557,4.181 -5.294,12.243 -13.389,21.478 m 41.344,-50.756 0,-6.895 -54.87,0 0,-17.49 -7.064,0 0,17.49 -54.871,0 0,6.895 54.871,0 0,22.975 -35.672,0 0.004,4.803 0,0.668 c 0.082,0.223 0.189,0.5 0.322,0.832 2.146,5.387 11.004,24.613 32.051,41.975 -11.324,7.029 -26.861,13.83 -49.178,19.164 l 4.074,7.055 c 21.322,-5.174 37.834,-13.17 50.582,-21.959 12.395,9.09 30.047,17.262 50.576,22.068 l 3.427,-6.342 c -19.63,-4.76 -36.524,-11.967 -48.325,-19.879 21.494,-16.668 30.504,-34.984 33.307,-42.082 0.666,-1.684 0.988,-2.746 1.041,-2.992 l -5.732,-3.311 -29.412,0 0,-22.975 54.869,0 z" id="path3546" inkscape:connector-curvature="0" style="fill:#514f4f"/>
</g>
<rect x="-64.169998" y="-123.826" width="1000" height="500" id="rect3548" style="fill:none"/>
</svg>